<svg width="40" height="40" viewBox="0 0 40 40" fill="none" xmlns="http://www.w3.org/2000/svg">
<g clip-path="url(#clip0_223_167)">
<rect width="40" height="40" fill="#E7157B"/>
<path d="M34 10L33.999 6.5C33.999 6.22363 33.7754 6 33.499 6H6.5C6.22363 6 6 6.22363 6 6.5V27.501C6 27.7774 6.22363 28.001 6.5 28.001H17V27.001H7V11H32.999V27.001H30.999V28.001H33.499C33.7754 28.001 33.999 27.7774 33.999 27.501V11L34 10ZM7 10V7H32.999V10H7ZM8 8H9V9H8V8ZM10 8H11.001V9H10V8ZM13 8V9H12V8H13ZM13 25V19H9V25H13ZM10 20H12V24H10V20ZM22 20.001V14H20V21.001H19V13H23V20.001H22ZM17 23V17H15V24H17V25H14V16H18V23H17ZM28.6182 20.1367C25.2998 20.9209 21.0547 22.1436 19.6797 23.5176C17.6234 25.5738 17.5445 28.8418 19.3941 31.0212L17.1328 33.2827L17.8398 33.9897L20.1085 31.721C21.1268 32.5533 22.3597 32.9946 23.6064 32.9946C25.0283 32.9946 26.4502 32.4536 27.5332 31.3711C28.9072 29.9966 30.1309 25.7514 30.9141 22.4321C31.0674 21.7827 30.877 21.1143 30.4063 20.6436C29.9356 20.1729 29.2686 19.9834 28.6182 20.1367ZM29.9414 22.2026C28.8906 26.6504 27.7549 29.7349 26.8262 30.6641C25.1841 32.3052 22.6006 32.4085 20.8155 31.0139L24.8096 27.0195L24.1026 26.3125L20.1 30.3153C19.4337 29.5037 19.0527 28.5081 19.0527 27.4443C19.0527 26.228 19.5264 25.085 20.3867 24.2246C21.3164 23.2959 24.4004 22.1607 28.8486 21.1104C28.9209 21.0928 28.9941 21.0845 29.0654 21.0845C29.3018 21.0845 29.5254 21.1768 29.7002 21.3511C29.9268 21.5781 30.0147 21.8887 29.9414 22.2026Z" fill="white"/>
</g>
<defs>
<clipPath id="clip0_223_167">
<rect width="40" height="40" fill="white"/>
</clipPath>
</defs>
</svg>
