<svg width="24" height="24" viewBox="0 0 24 24" fill="none" xmlns="http://www.w3.org/2000/svg">
<rect width="24" height="24" fill="#01A88D"/>
<path d="M19 13H20V16C20 16.1895 19.8926 16.3623 19.7236 16.4473L17.2236 17.6973L16.7764 16.8027L18.4408 15.9705L16.752 15.0054L17.248 14.1372L19 15.1384L19 13ZM19.7236 7.55273L17.2236 6.30273L16.7764 7.19726L18.4928 8.05548L16.7588 9.01123L17.2412 9.88721L19 8.91779V11H20V8C20 7.81055 19.8926 7.6377 19.7236 7.55273ZM12 5.30908V6.99902H13V5.30908L15.2764 6.44726L15.7236 5.55273L12.7236 4.05273C12.583 3.98242 12.417 3.98242 12.2764 4.05273L9.27636 5.55273L9.72363 6.44726L12 5.30908ZM13 18.6909V17H12V18.6909L9.72363 17.5527L9.27636 18.4473L12.2764 19.9473C12.3467 19.9824 12.4238 20 12.5 20C12.5762 20 12.6533 19.9824 12.7236 19.9473L15.7236 18.4473L15.2764 17.5527L13 18.6909ZM10.4795 14C10.3877 14 10.2959 13.9746 10.2158 13.9248C10.0684 13.8335 9.97949 13.6729 9.97949 13.5V10.5C9.97949 10.3272 10.0684 10.1665 10.2158 10.0752C10.3613 9.98487 10.5469 9.9751 10.7002 10.0518L13.7412 11.5518C13.9121 11.6357 14.0205 11.8096 14.0205 12C14.0205 12.1904 13.9121 12.3643 13.7412 12.4482L10.7002 13.9482C10.6309 13.9829 10.5547 14 10.4795 14ZM10.9795 12.6958L12.3906 12L10.9795 11.3042V12.6958ZM5 7H4C4 9.28027 5.71973 11 8 11V10C6.29004 10 5 8.71045 5 7ZM4 18H5C5 16.2896 6.29004 15 8 15V14C5.71973 14 4 15.7197 4 18ZM7.99902 12H4V13H7.99902V12ZM15.5 7.99902H9V8.99902H15V15H9V16H15.5C15.7764 16 16 15.7764 16 15.5V8.49902C16 8.22265 15.7764 7.99902 15.5 7.99902Z" fill="white"/>
</svg>
