<svg width="40" height="40" viewBox="0 0 40 40" fill="none" xmlns="http://www.w3.org/2000/svg">
<rect width="40" height="40" fill="#01A88D"/>
<path d="M32.001 12.6748V18H31.001V13.5708L27.5039 15.5137L27.0176 14.6396L30.5234 12.692L26.9297 10.6387L27.4258 9.77051L31.749 12.2407C31.9053 12.3296 32.001 12.4956 32.001 12.6748ZM31.001 25.3658L27.5039 23.4233L27.0176 24.2973L30.5233 26.2446L26.9297 28.2983L27.4258 29.1665L31.749 26.6958C31.9053 26.6069 32.001 26.4409 32.001 26.2617V21H31.001L31.001 25.3658ZM19.501 21.8213C19.4092 21.8213 19.3184 21.7964 19.2383 21.7466C19.0908 21.6558 19.001 21.4946 19.001 21.3213V17.6157C19.001 17.4424 19.0908 17.2817 19.2383 17.1904C19.3848 17.0986 19.5693 17.0908 19.7246 17.1685L23.4297 19.021C23.5986 19.106 23.7061 19.2788 23.7061 19.4683C23.7061 19.6577 23.5986 19.8306 23.4297 19.9155L19.7246 21.7686C19.6543 21.8037 19.5771 21.8213 19.501 21.8213ZM20.001 20.5122L22.0879 19.4683L20.001 18.4248V20.5122ZM20.001 7.34148V12H21.001V7.37945L24.543 9.4038L25.0391 8.53564L20.7158 6.06494C20.5615 5.97705 20.374 5.97705 20.2197 6.06494L15.8965 8.53564L16.3926 9.4038L20.001 7.34148ZM21.001 31.5571V27H20.001V31.5951L16.3926 29.5332L15.8965 30.4014L20.2197 32.8716C20.2969 32.9155 20.3818 32.9375 20.4678 32.9375C20.5537 32.9375 20.6387 32.9155 20.7158 32.8716L25.0391 30.4014L24.543 29.5332L21.001 31.5571ZM24.8828 13H17.001V14H24.8828C24.9482 14 25.001 14.0527 25.001 14.1177V24.8823C25.001 24.9473 24.9482 25 24.8828 25H17.001V26H24.8828C25.499 26 26.001 25.4985 26.001 24.8823V14.1177C26.001 13.5015 25.499 13 24.8828 13ZM16.1445 16.2632V15.2632C13.9434 15.2632 9.85156 12.9805 9.85156 10.8223H8.85156C8.85156 13.6279 13.4014 16.2632 16.1445 16.2632ZM16.7617 19.9683V18.9683C13.2393 18.9683 7.99805 17.7856 7.99805 14.5278H6.99805C6.99805 17.1089 9.41223 18.7186 12.4543 19.4683C9.41224 20.2179 6.99805 21.8278 6.99805 24.4092H7.99805C7.99805 21.1509 13.2393 19.9683 16.7617 19.9683ZM16.1445 22.6738C13.4014 22.6738 8.85156 25.3091 8.85156 28.1147H9.85156C9.85156 25.9565 13.9434 23.6738 16.1445 23.6738V22.6738Z" fill="white"/>
</svg>
