<svg width="24" height="24" viewBox="0 0 24 24" fill="none" xmlns="http://www.w3.org/2000/svg">
<g clip-path="url(#clip0_230_158)">
<rect width="24" height="24" fill="#8C4FFF"/>
<path d="M17.8978 16.9415C17.2478 16.2815 16.2078 16.2515 15.5278 16.8615L13.2078 14.5415C13.9978 13.9915 14.5077 13.0816 14.5077 12.0515C14.5077 10.3916 13.1578 9.03151 11.4878 9.03151C9.8178 9.03151 8.45775 10.3916 8.45775 12.0515C8.45775 13.0816 8.97777 13.9915 9.76775 14.5315L7.58776 16.7116C7.29778 16.5216 6.97777 16.4315 6.64776 16.4315C6.19775 16.4315 5.75775 16.6015 5.41778 16.9415C4.73779 17.6215 4.73779 18.7315 5.41778 19.4115C5.75775 19.7515 6.20776 19.9215 6.65777 19.9215C7.09777 19.9215 7.54778 19.7515 7.88775 19.4115C8.21777 19.0815 8.40777 18.6415 8.40777 18.1715C8.40777 17.9315 8.35778 17.6915 8.2478 17.4715L10.7378 14.9815C10.8178 15.0115 10.8978 15.0216 10.9878 15.0315V16.5615C10.7778 16.6516 10.5878 16.7716 10.4178 16.9415C10.0878 17.2716 9.90777 17.7116 9.90777 18.1715C9.90777 18.6415 10.0878 19.0815 10.4178 19.4115C10.7478 19.7415 11.1877 19.9215 11.6578 19.9215C12.1277 19.9215 12.5677 19.7415 12.8978 19.4115C13.2278 19.0815 13.4078 18.6415 13.4078 18.1715C13.4078 17.7116 13.2278 17.2716 12.8978 16.9415C12.6478 16.6915 12.3278 16.5216 11.9878 16.4515V15.0315C12.0778 15.0216 12.1578 15.0115 12.2378 14.9815L14.9778 17.7116C14.9278 17.8615 14.9078 18.0115 14.9078 18.1715C14.9078 18.6415 15.0978 19.0815 15.4278 19.4115C15.7678 19.7515 16.2178 19.9215 16.6578 19.9215C17.1078 19.9215 17.5578 19.7515 17.8978 19.4115C18.2278 19.0815 18.4078 18.6415 18.4078 18.1715C18.4078 17.7116 18.2278 17.2716 17.8978 16.9415ZM7.18774 18.7016C6.88775 19.0015 6.41778 19.0015 6.11779 18.7016C5.82775 18.4115 5.82775 17.9415 6.11779 17.6416C6.41778 17.3515 6.88775 17.3515 7.18774 17.6416C7.32775 17.7915 7.40777 17.9715 7.40777 18.1715C7.40777 18.3715 7.32775 18.5615 7.18774 18.7016ZM12.1877 17.6416C12.3278 17.7915 12.4078 17.9715 12.4078 18.1715C12.4078 18.3715 12.3278 18.5615 12.1877 18.7016C12.0478 18.8515 11.8578 18.9215 11.6578 18.9215C11.4578 18.9215 11.2678 18.8515 11.1277 18.7016C10.9878 18.5615 10.9078 18.3715 10.9078 18.1715C10.9078 17.9715 10.9878 17.7915 11.1277 17.6416C11.2677 17.5015 11.4578 17.4215 11.6578 17.4215C11.8578 17.4215 12.0478 17.5015 12.1877 17.6416ZM11.4878 14.0816C10.3678 14.0816 9.45776 13.1715 9.45776 12.0515C9.45776 10.9415 10.3678 10.0315 11.4878 10.0315C12.6078 10.0315 13.5077 10.9415 13.5077 12.0515C13.5077 13.1715 12.6078 14.0816 11.4878 14.0816ZM17.1877 18.7016C16.9078 18.9915 16.4178 18.9915 16.1277 18.7016C15.9878 18.5615 15.9078 18.3715 15.9078 18.1715C15.9078 17.9715 15.9878 17.7915 16.1277 17.6416C16.2677 17.5015 16.4578 17.4215 16.6578 17.4215C16.8578 17.4215 17.0478 17.5015 17.1877 17.6416C17.3378 17.7915 17.4078 17.9715 17.4078 18.1715C17.4078 18.3715 17.3378 18.5615 17.1877 18.7016ZM14.9824 14.954V13.954H16.9238C17.0957 13.9379 18.9492 13.7216 18.9492 11.6708C18.9492 9.91445 17.5156 9.47012 16.8994 9.36025C16.6377 9.31386 16.458 9.07021 16.4912 8.80605C16.4912 8.05654 16.1904 7.51259 15.666 7.34511C15.2295 7.20351 14.748 7.37587 14.4668 7.76991C14.3584 7.92274 14.1748 8.00282 13.9873 7.97401C13.8018 7.94715 13.6475 7.81874 13.5869 7.641C13.3691 7.00575 13.0557 6.47205 12.6543 6.05506C12.1689 5.55067 10.8311 4.46912 8.96094 5.28992C7.89063 5.75867 7.02051 7.16785 7.02051 8.43103L7.04688 8.89001C7.06055 9.12683 6.90528 9.34069 6.67579 9.40124C6.04981 9.56677 5.00001 10.079 5.00001 11.6468C5.00001 12.7875 5.57618 13.4315 6.0586 13.7709C6.19044 13.8636 6.49415 13.954 6.67383 13.954H7.99024V14.954H6.67383C6.28418 14.954 5.78321 14.8002 5.4834 14.5887C4.92969 14.1996 4 13.2997 4 11.6469C4 10.181 4.75 9.05457 6.02734 8.56141L6.02148 8.45887C6.0205 6.75233 7.1123 5.00819 8.55957 4.37391C10.2598 3.6283 12.0596 3.99842 13.375 5.36121C13.7197 5.72059 14.0117 6.14295 14.2471 6.62293C14.7559 6.29871 15.3828 6.20447 15.9717 6.39246C16.8242 6.6659 17.3701 7.42859 17.4736 8.46717C18.7334 8.82215 19.9492 9.81385 19.9492 11.6708C19.9492 14.0883 17.9951 14.8749 16.9619 14.9525L14.9824 14.954Z" fill="white"/>
</g>
<defs>
<clipPath id="clip0_230_158">
<rect width="24" height="24" fill="white"/>
</clipPath>
</defs>
</svg>
