<svg width="40" height="40" viewBox="0 0 40 40" fill="none" xmlns="http://www.w3.org/2000/svg">
<g clip-path="url(#clip0_230_159)">
<rect width="40" height="40" fill="#8C4FFF"/>
<path d="M33.8624 19.4212C33.8624 24.4979 28.9014 24.9295 28.8506 24.9334L24.9698 24.9515L24.9659 23.9515L28.8116 23.9349C28.9414 23.9232 32.8623 23.5609 32.8623 19.4212C32.8623 15.8568 29.7842 15.0331 28.8409 14.8656C28.5762 14.8187 28.3956 14.5712 28.4327 14.305C28.4356 12.7494 27.7764 11.6019 26.6719 11.2484C25.7198 10.9422 24.669 11.3099 24.0606 12.162C23.9522 12.3153 23.7686 12.3919 23.5811 12.3661C23.3956 12.3392 23.2413 12.2103 23.1807 12.0331C22.7696 10.8299 22.1739 9.81918 21.4112 9.02866C20.4786 8.05991 17.9229 5.97739 14.3067 7.5604C12.2129 8.47788 10.5733 11.1249 10.5733 13.5858L10.6221 14.4344C10.6358 14.6712 10.4805 14.8851 10.251 14.9461C9.01178 15.2743 6.93268 16.2865 6.93268 19.3783C6.93268 21.6014 8.06354 22.8651 9.01178 23.5335C9.31549 23.7474 9.94049 23.9349 10.3497 23.9349H14.7217V24.9349H10.3497C9.73151 24.9349 8.90924 24.6839 8.43561 24.3514C7.50104 23.6922 5.93268 22.1703 5.93268 19.3783C5.93268 15.8514 8.25299 14.5541 9.60163 14.098L9.57429 13.6141C9.57331 10.7113 11.4356 7.7269 13.9053 6.64438C16.8116 5.37436 19.8848 6.00424 22.1319 8.33432C22.8272 9.05551 23.3965 9.93051 23.8321 10.9437C24.7012 10.2059 25.8839 9.94516 26.9766 10.2958C28.4268 10.7606 29.3262 12.1205 29.4258 13.9676C30.8555 14.3148 33.8624 15.5121 33.8624 19.4212ZM30.8917 30.9505C30.8917 32.6048 29.546 33.9505 27.8917 33.9505C26.2374 33.9505 24.8917 32.6048 24.8917 30.9505C24.8917 30.2843 25.1172 29.6742 25.486 29.1757L21.1153 24.805L21.1525 24.7678C20.9167 24.8302 20.6747 24.8692 20.4268 24.8965V28.0053C21.8224 28.2618 22.8848 29.4818 22.8848 30.9505C22.8848 32.6048 21.5391 33.9505 19.8848 33.9505C18.2305 33.9505 16.8848 32.6048 16.8848 30.9505C16.8848 29.4531 17.9908 28.2193 19.4268 27.9968V24.9054C19.2154 24.8859 19.0033 24.8712 18.8003 24.8261L14.3591 29.2672C14.6861 29.7476 14.878 30.3269 14.878 30.9505C14.878 32.6048 13.5323 33.9505 11.878 33.9505C10.2237 33.9505 8.87798 32.6048 8.87798 30.9505C8.87798 29.2962 10.2237 27.9505 11.878 27.9505C12.548 27.9505 13.1609 28.179 13.6608 28.5515L17.7544 24.4578C16.0633 23.6552 14.8829 21.9444 14.8829 19.9515C14.8829 17.1946 17.126 14.9515 19.8829 14.9515C22.6397 14.9515 24.8829 17.1946 24.8829 19.9515C24.8829 21.8995 23.7518 23.5728 22.122 24.3977L26.2003 28.476C26.6824 28.1454 27.2643 27.9505 27.8917 27.9505C29.546 27.9505 30.8917 29.2962 30.8917 30.9505ZM13.878 30.9505C13.878 29.8475 12.9805 28.9505 11.878 28.9505C10.7754 28.9505 9.87799 29.8475 9.87799 30.9505C9.87799 32.0536 10.7754 32.9505 11.878 32.9505C12.9805 32.9505 13.878 32.0536 13.878 30.9505ZM19.8829 23.9515C22.0889 23.9515 23.8829 22.1571 23.8829 19.9515C23.8829 17.7459 22.0889 15.9515 19.8829 15.9515C17.6768 15.9515 15.8829 17.7459 15.8829 19.9515C15.8829 22.1571 17.6768 23.9515 19.8829 23.9515ZM19.8848 28.9505C18.7823 28.9505 17.8848 29.8475 17.8848 30.9505C17.8848 32.0536 18.7823 32.9505 19.8848 32.9505C20.9874 32.9505 21.8848 32.0536 21.8848 30.9505C21.8848 29.8475 20.9874 28.9505 19.8848 28.9505ZM29.8917 30.9505C29.8917 29.8475 28.9942 28.9505 27.8917 28.9505C26.7891 28.9505 25.8917 29.8475 25.8917 30.9505C25.8917 32.0536 26.7891 32.9505 27.8917 32.9505C28.9942 32.9505 29.8917 32.0536 29.8917 30.9505Z" fill="white"/>
</g>
<defs>
<clipPath id="clip0_230_159">
<rect width="40" height="40" fill="white"/>
</clipPath>
</defs>
</svg>
