<svg width="24" height="24" viewBox="0 0 24 24" fill="none" xmlns="http://www.w3.org/2000/svg">
<g clip-path="url(#clip0_223_166)">
<rect width="24" height="24" fill="#E7157B"/>
<path d="M20 4.5V16.5C20 16.7764 19.7764 17 19.5 17H17V16H19V5H5V16H9V17H4.5C4.22363 17 4 16.7764 4 16.5V4.5C4 4.22363 4.22363 4 4.5 4H19.5C19.7764 4 20 4.22363 20 4.5ZM6 10H9V15H6V10ZM7 14H8V11H7V14ZM13 12V8H10V13H11V9H12V12H13ZM17 11V7H14V11H15V8H16V11H17ZM17.1895 13.5625C16.5742 16.167 15.9502 17.8003 15.334 18.417C14.7324 19.0181 13.9336 19.3491 13.084 19.3491C12.3413 19.3491 11.6459 19.0832 11.0793 18.618L9.70898 19.9883L9.00195 19.2812L10.4065 17.8766C10.0821 17.3704 9.90332 16.7837 9.90332 16.168C9.90332 15.3184 10.2344 14.5195 10.835 13.919C11.4521 13.3013 13.0859 12.6768 15.6895 12.0625C16.1172 11.9605 16.5508 12.0864 16.8584 12.394C17.166 12.7017 17.29 13.1387 17.1895 13.5625ZM16.2168 13.333C16.2441 13.2158 16.1875 13.1372 16.1514 13.1011C16.1221 13.0718 16.0645 13.0283 15.9805 13.0283C15.9619 13.0283 15.9414 13.0308 15.9199 13.0361C13.6357 13.5747 11.999 14.169 11.542 14.626C10.8617 15.3059 10.735 16.3235 11.143 17.1402L13.1465 15.1367L13.8535 15.8438L11.7885 17.9087C12.6305 18.5205 13.8793 18.4585 14.627 17.71C15.083 17.2539 15.6768 15.6177 16.2168 13.333Z" fill="white"/>
</g>
<defs>
<clipPath id="clip0_223_166">
<rect width="24" height="24" fill="white"/>
</clipPath>
</defs>
</svg>
